<?xml version="1.0" encoding="UTF-8" standalone="no"?>
<svg xmlns="http://www.w3.org/2000/svg" viewBox="0 0 566 403"><circle cx="280.5" cy="41.5" r="40" fill="#fff" stroke="#000" stroke-width="3"/><circle cx="121.5" cy="121.5" r="40" fill="#fff" stroke="#000" stroke-width="3"/><circle cx="444.5" cy="121.5" r="40" fill="#fff" stroke="#000" stroke-width="3"/><circle cx="41.5" cy="201.5" r="40" fill="#fff" stroke="#000" stroke-width="3"/><circle cx="201.5" cy="201.5" r="40" fill="#fff" stroke="#000" stroke-width="3"/><circle cx="281.5" cy="281.5" r="40" fill="#fff" stroke="#000" stroke-width="3"/><circle cx="364.5" cy="201.5" r="40" fill="#b9e0a5" stroke="#060" stroke-width="3"/><circle cx="524.5" cy="201.5" r="40" fill="#b9e0a5" stroke="#060" stroke-width="3"/><circle cx="201.5" cy="361.5" r="40" fill="#b9e0a5" stroke="#060" stroke-width="3"/><circle cx="360.5" cy="361.5" r="40" fill="#b9e0a5" stroke="#060" stroke-width="3"/><path d="M253.5,70.5l-93,21.7" transform="translate(-1 -1)" fill="none" stroke="#000" stroke-miterlimit="10" stroke-width="2"/><path d="M152.7,94l6.9-5.7,1.8,7.8Z" transform="translate(-1 -1)" stroke="#000" stroke-miterlimit="10" stroke-width="2"/><path d="M94.5,150.5,77.7,167.3" transform="translate(-1 -1)" fill="none" stroke="#000" stroke-miterlimit="10" stroke-width="2"/><path d="M72.1,172.9l2.8-8.5,5.7,5.7Z" transform="translate(-1 -1)" stroke="#000" stroke-miterlimit="10" stroke-width="2"/><path d="M150.5,150.5l16.8,16.8" transform="translate(-1 -1)" fill="none" stroke="#000" stroke-miterlimit="10" stroke-width="2"/><path d="M172.9,172.9l-8.5-2.8,5.7-5.7Z" transform="translate(-1 -1)" stroke="#000" stroke-miterlimit="10" stroke-width="2"/><path d="M230.5,230.5l16.8,16.8" transform="translate(-1 -1)" fill="none" stroke="#000" stroke-miterlimit="10" stroke-width="2"/><path d="M252.9,252.9l-8.5-2.8,5.7-5.7Z" transform="translate(-1 -1)" stroke="#000" stroke-miterlimit="10" stroke-width="2"/><path d="M254.5,310.5l-16.8,16.8" transform="translate(-1 -1)" fill="none" stroke="#000" stroke-miterlimit="10" stroke-width="2"/><path d="M232.1,332.9l2.8-8.5,5.7,5.7Z" transform="translate(-1 -1)" stroke="#000" stroke-miterlimit="10" stroke-width="2"/><path d="M310.5,310.5l15.9,16.6" transform="translate(-1 -1)" fill="none" stroke="#000" stroke-miterlimit="10" stroke-width="2"/><path d="M332,332.9l-8.4-3,5.8-5.5Z" transform="translate(-1 -1)" stroke="#000" stroke-miterlimit="10" stroke-width="2"/><path d="M417.5,150.5l-16.8,16.8" transform="translate(-1 -1)" fill="none" stroke="#000" stroke-miterlimit="10" stroke-width="2"/><path d="M395.1,172.9l2.8-8.5,5.7,5.7Z" transform="translate(-1 -1)" stroke="#000" stroke-miterlimit="10" stroke-width="2"/><path d="M473.5,150.5l16.8,16.8" transform="translate(-1 -1)" fill="none" stroke="#000" stroke-miterlimit="10" stroke-width="2"/><path d="M495.9,172.9l-8.5-2.8,5.7-5.7Z" transform="translate(-1 -1)" stroke="#000" stroke-miterlimit="10" stroke-width="2"/><path d="M309.5,70.5l98,21.8" transform="translate(-1 -1)" fill="none" stroke="#000" stroke-miterlimit="10" stroke-width="2"/><path d="M415.3,94l-8.7,2.2,1.7-7.8Z" transform="translate(-1 -1)" stroke="#000" stroke-miterlimit="10" stroke-width="2"/><circle cx="120.5" cy="271.5" r="40" fill="#b9e0a5" stroke="#060" stroke-width="3"/><path d="M70.5,230.5l12.2,10.4" transform="translate(-1 -1)" fill="none" stroke="#000" stroke-miterlimit="10" stroke-width="2"/><path d="M88.8,246.1l-8.7-2.1,5.2-6.1Z" transform="translate(-1 -1)" stroke="#000" stroke-miterlimit="10" stroke-width="2"/><path d="M278.9,49.9v2.4H263.4V49.9h6.5V32.9H265V31l3.2-.7,2.4-1h2.2V49.9Z" transform="translate(-1 -1)"/><path d="M284.1,50.5l5.2-4.7a53,53,0,0,0,3.8-3.8,17.2,17.2,0,0,0,2.3-3.3,6.3,6.3,0,0,0,.8-3,4.5,4.5,0,0,0-1.2-3.2,5.1,5.1,0,0,0-3.8-1.3,5.9,5.9,0,0,0-3,.8,11.7,11.7,0,0,0-2.5,2L284,32.4a13.7,13.7,0,0,1,3.3-2.5,8.8,8.8,0,0,1,4.2-1,9.4,9.4,0,0,1,3.1.5,6.8,6.8,0,0,1,2.4,1.4,5.9,5.9,0,0,1,1.5,2.1,7.2,7.2,0,0,1,.5,2.8,7.6,7.6,0,0,1-.8,3.3,17.2,17.2,0,0,1-2.2,3.4,40.6,40.6,0,0,1-3.3,3.6l-4.3,4h11.8v2.6H284.1Z" transform="translate(-1 -1)"/><path d="M128.8,113.2a6.9,6.9,0,0,0-2.1-1.3,6.5,6.5,0,0,0-2.5-.5,7,7,0,0,0-2.6.5,5.5,5.5,0,0,0-2.2,1.7,8.9,8.9,0,0,0-1.5,3,16.5,16.5,0,0,0-.6,4.7,11,11,0,0,1,3.1-2.2,8,8,0,0,1,3.4-.8,8.9,8.9,0,0,1,2.9.5,6.3,6.3,0,0,1,2.3,1.3,5.9,5.9,0,0,1,1.5,2.2,8.5,8.5,0,0,1,.5,3.1,7,7,0,0,1-.6,3,7.4,7.4,0,0,1-1.7,2.3,7.6,7.6,0,0,1-2.4,1.5,8,8,0,0,1-2.9.5,8.7,8.7,0,0,1-3.5-.7A7.5,7.5,0,0,1,117,130a9.9,9.9,0,0,1-1.9-3.5,15.8,15.8,0,0,1-.7-4.8,19.1,19.1,0,0,1,.8-5.9,11.3,11.3,0,0,1,2.1-4,8,8,0,0,1,3.1-2.2,9.6,9.6,0,0,1,3.6-.7,9,9,0,0,1,3.7.7,10.3,10.3,0,0,1,2.7,1.7Zm-5.6,17.2a5.1,5.1,0,0,0,1.9-.4,4.4,4.4,0,0,0,1.5-1,4.9,4.9,0,0,0,1-1.6,5.4,5.4,0,0,0,.4-2.1,4.9,4.9,0,0,0-1.3-3.6,5,5,0,0,0-3.6-1.2,6.8,6.8,0,0,0-2.9.7,9.3,9.3,0,0,0-3,2.4,8.8,8.8,0,0,0,1.9,5.1A5.1,5.1,0,0,0,123.3,130.4Z" transform="translate(-1 -1)"/><path d="M34.3,210.5l5.2-4.7a53,53,0,0,0,3.8-3.8,17.2,17.2,0,0,0,2.3-3.3,6.3,6.3,0,0,0,.8-3,4.5,4.5,0,0,0-1.2-3.2,5.1,5.1,0,0,0-3.8-1.3,5.9,5.9,0,0,0-3,.8,11.7,11.7,0,0,0-2.5,2l-1.7-1.7a13.7,13.7,0,0,1,3.3-2.5,8.8,8.8,0,0,1,4.2-1,9.4,9.4,0,0,1,3.1.5,6.8,6.8,0,0,1,2.4,1.4,5.9,5.9,0,0,1,1.5,2.1,7.2,7.2,0,0,1,.5,2.8,7.6,7.6,0,0,1-.8,3.3,17.2,17.2,0,0,1-2.2,3.4,40.6,40.6,0,0,1-3.3,3.6l-4.3,4H50.5v2.6H34.3Z" transform="translate(-1 -1)"/><path d="M130.3,276h-3.6v6.3h-2.8V276H112.1v-2l11.5-14.7h3.2v14.3h3.6Zm-6.4-2.4v-9.2q0-1.1.1-2h-.2l-1.2,1.7-1.2,1.7-6.2,7.8Z" transform="translate(-1 -1)"/><path d="M194.1,206.4a5,5,0,0,1,.4-2.1,6.7,6.7,0,0,1,1.1-1.7,7.5,7.5,0,0,1,1.6-1.3l1.8-1h0a9.5,9.5,0,0,1-2.5-2.2,5,5,0,0,1-1-3.2,5.5,5.5,0,0,1,.5-2.4,5.4,5.4,0,0,1,1.5-1.9,7.1,7.1,0,0,1,2.3-1.2,9,9,0,0,1,2.8-.4,9.3,9.3,0,0,1,3,.4,6.5,6.5,0,0,1,2.2,1.3,5.4,5.4,0,0,1,1.4,1.9,6.2,6.2,0,0,1,.5,2.5,5.1,5.1,0,0,1-1,3,10.3,10.3,0,0,1-2.5,2.4h0l1.8,1a7.2,7.2,0,0,1,1.4,1.2,5,5,0,0,1,1,1.6,6.1,6.1,0,0,1,.3,2.1,5.3,5.3,0,0,1-.6,2.4,5.8,5.8,0,0,1-1.6,1.9,7.7,7.7,0,0,1-2.6,1.3,12,12,0,0,1-3.5.5,12.3,12.3,0,0,1-3.5-.5,7.9,7.9,0,0,1-2.6-1.3,6,6,0,0,1-1.7-2A5.4,5.4,0,0,1,194.1,206.4Zm2.7-.3a3.8,3.8,0,0,0,1.6,3.2,6.7,6.7,0,0,0,4.2,1.2,6.1,6.1,0,0,0,4-1.1,3.6,3.6,0,0,0,1.4-2.9,3.4,3.4,0,0,0-.6-2,4.8,4.8,0,0,0-1.5-1.4l-2.3-1-2.8-1a11.6,11.6,0,0,0-2.8,2.1A4,4,0,0,0,196.8,206.2Zm7.5-6.4q2.9-2.1,2.9-4.6a3.9,3.9,0,0,0-1.2-2.9,4.7,4.7,0,0,0-3.5-1.2,4.7,4.7,0,0,0-3.1,1,3.4,3.4,0,0,0-1.2,2.7,3.3,3.3,0,0,0,.5,1.8,4.6,4.6,0,0,0,1.3,1.3l1.9,1Z" transform="translate(-1 -1)"/><path d="M279.9,289.9v2.4H264.4v-2.4h6.5V272.9H266V271l3.2-.7,2.4-1h2.2v20.5Z" transform="translate(-1 -1)"/><path d="M293.3,292.7a7,7,0,0,1-6-3.1q-2.2-3.1-2.2-8.9t2.2-8.8a7.6,7.6,0,0,1,12.1,0q2.2,3,2.2,8.8t-2.2,8.9A7,7,0,0,1,293.3,292.7Zm0-21.5a4.6,4.6,0,0,0-2.2.5,4.7,4.7,0,0,0-1.7,1.7,9.3,9.3,0,0,0-1.1,3,19.9,19.9,0,0,0-.4,4.3q0,4.9,1.5,7.3a4.5,4.5,0,0,0,7.9,0q1.5-2.3,1.5-7.3a19.9,19.9,0,0,0-.4-4.3,9.3,9.3,0,0,0-1.1-3,4.7,4.7,0,0,0-1.7-1.7A4.6,4.6,0,0,0,293.3,271.3Zm0,11.6a2.2,2.2,0,0,1-1.6-.6,2.3,2.3,0,0,1-.7-1.8,2.3,2.3,0,0,1,.7-1.7,2.3,2.3,0,0,1,3.1,0,2.3,2.3,0,0,1,.7,1.7,2.3,2.3,0,0,1-.7,1.8A2.2,2.2,0,0,1,293.3,282.9Z" transform="translate(-1 -1)"/><path d="M196.2,368.5a6.7,6.7,0,0,0,2.1,1.3,6.4,6.4,0,0,0,2.5.5,6.9,6.9,0,0,0,2.6-.5,5.5,5.5,0,0,0,2.2-1.7,8.9,8.9,0,0,0,1.5-3,17.6,17.6,0,0,0,.6-4.6,11.3,11.3,0,0,1-3.1,2.2,7.9,7.9,0,0,1-3.4.8,8.9,8.9,0,0,1-2.9-.5,6.1,6.1,0,0,1-2.2-1.3,6,6,0,0,1-1.5-2.2,8.5,8.5,0,0,1-.5-3.1,7.2,7.2,0,0,1,.6-3,7,7,0,0,1,1.7-2.3,7.7,7.7,0,0,1,2.4-1.5,7.9,7.9,0,0,1,2.9-.5,8.9,8.9,0,0,1,3.5.7,7.5,7.5,0,0,1,2.8,2.1,9.9,9.9,0,0,1,1.9,3.5,15.9,15.9,0,0,1,.7,4.8,18.7,18.7,0,0,1-.8,5.9,11.5,11.5,0,0,1-2.1,4,8.1,8.1,0,0,1-3.1,2.2,9.5,9.5,0,0,1-3.6.7,9.2,9.2,0,0,1-3.7-.7,9.9,9.9,0,0,1-2.7-1.7Zm5.6-7.3a6.8,6.8,0,0,0,2.8-.7,9.8,9.8,0,0,0,3-2.4,9.2,9.2,0,0,0-1.9-5.1,5.5,5.5,0,0,0-6-1.4,4.5,4.5,0,0,0-1.5,1,4.9,4.9,0,0,0-1,1.6,5.4,5.4,0,0,0-.4,2.1,4.9,4.9,0,0,0,1.2,3.6A5,5,0,0,0,201.8,361.1Z" transform="translate(-1 -1)"/><path d="M358.9,369.9v2.4H343.4v-2.4h6.5V352.9H345V351l3.2-.7,2.4-1h2.2v20.5Z" transform="translate(-1 -1)"/><path d="M380.5,369.9v2.4H365v-2.4h6.5V352.9h-4.9V351l3.2-.7,2.4-1h2.2v20.5Z" transform="translate(-1 -1)"/><path d="M442.9,129.9v2.4H427.4v-2.4h6.5V112.9H429V111l3.2-.7,2.4-1h2.2v20.5Z" transform="translate(-1 -1)"/><path d="M462.6,113.2a6.9,6.9,0,0,0-2.1-1.3,6.5,6.5,0,0,0-2.5-.5,7,7,0,0,0-2.6.5,5.5,5.5,0,0,0-2.2,1.7,8.9,8.9,0,0,0-1.5,3,16.5,16.5,0,0,0-.6,4.7,11,11,0,0,1,3.1-2.2,8,8,0,0,1,3.4-.8,8.9,8.9,0,0,1,2.9.5,6.3,6.3,0,0,1,2.3,1.3,5.9,5.9,0,0,1,1.5,2.2,8.5,8.5,0,0,1,.5,3.1,7,7,0,0,1-.6,3,7.4,7.4,0,0,1-1.7,2.3,7.6,7.6,0,0,1-2.4,1.5,8,8,0,0,1-2.9.5,8.7,8.7,0,0,1-3.5-.7,7.5,7.5,0,0,1-2.8-2.1,9.9,9.9,0,0,1-1.9-3.5,15.8,15.8,0,0,1-.7-4.8,19.1,19.1,0,0,1,.8-5.9,11.3,11.3,0,0,1,2.1-4,8,8,0,0,1,3.1-2.2,9.6,9.6,0,0,1,3.6-.7,9,9,0,0,1,3.7.7,10.3,10.3,0,0,1,2.7,1.7Zm-5.6,17.2a5.1,5.1,0,0,0,1.9-.4,4.4,4.4,0,0,0,1.5-1,4.9,4.9,0,0,0,1-1.6,5.4,5.4,0,0,0,.4-2.1,4.9,4.9,0,0,0-1.3-3.6,5,5,0,0,0-3.6-1.2,6.8,6.8,0,0,0-2.9.7,9.3,9.3,0,0,0-3,2.4,8.8,8.8,0,0,0,1.9,5.1A5.1,5.1,0,0,0,457.1,130.4Z" transform="translate(-1 -1)"/><path d="M362.9,209.9v2.4H347.4v-2.4h6.5V192.9H349V191l3.2-.7,2.4-1h2.2v20.5Z" transform="translate(-1 -1)"/><path d="M385.1,206h-3.6v6.3h-2.8V206H366.9v-2l11.5-14.7h3.2v14.3h3.6Zm-6.4-2.4v-9.2q0-1.1.1-2h-.2l-1.2,1.7-1.2,1.7-6.2,7.8Z" transform="translate(-1 -1)"/><path d="M522.9,209.9v2.4H507.4v-2.4h6.5V192.9H509V191l3.2-.7,2.4-1h2.2v20.5Z" transform="translate(-1 -1)"/><path d="M527.9,206.4a5,5,0,0,1,.4-2.1,6.7,6.7,0,0,1,1.1-1.7,7.5,7.5,0,0,1,1.6-1.3l1.8-1h0a9.5,9.5,0,0,1-2.5-2.2,5,5,0,0,1-1-3.2,5.5,5.5,0,0,1,.5-2.4,5.4,5.4,0,0,1,1.5-1.9,7.1,7.1,0,0,1,2.3-1.2,9,9,0,0,1,2.8-.4,9.3,9.3,0,0,1,3,.4,6.5,6.5,0,0,1,2.2,1.3,5.4,5.4,0,0,1,1.4,1.9,6.2,6.2,0,0,1,.5,2.5,5.1,5.1,0,0,1-1,3,10.3,10.3,0,0,1-2.5,2.4h0l1.8,1a7.2,7.2,0,0,1,1.4,1.2,5,5,0,0,1,1,1.6,6.1,6.1,0,0,1,.3,2.1,5.3,5.3,0,0,1-.6,2.4,5.8,5.8,0,0,1-1.6,1.9,7.7,7.7,0,0,1-2.6,1.3,12,12,0,0,1-3.5.5,12.3,12.3,0,0,1-3.5-.5,7.9,7.9,0,0,1-2.6-1.3,6,6,0,0,1-1.7-2A5.4,5.4,0,0,1,527.9,206.4Zm2.7-.3a3.8,3.8,0,0,0,1.6,3.2,6.7,6.7,0,0,0,4.2,1.2,6.1,6.1,0,0,0,4-1.1,3.6,3.6,0,0,0,1.4-2.9,3.4,3.4,0,0,0-.6-2,4.8,4.8,0,0,0-1.5-1.4l-2.3-1-2.8-1a11.6,11.6,0,0,0-2.8,2.1A4,4,0,0,0,530.6,206.2Zm7.5-6.4q2.9-2.1,2.9-4.6a3.9,3.9,0,0,0-1.2-2.9,4.7,4.7,0,0,0-3.5-1.2,4.7,4.7,0,0,0-3.1,1,3.4,3.4,0,0,0-1.2,2.7,3.3,3.3,0,0,0,.5,1.8,4.6,4.6,0,0,0,1.3,1.3l1.9,1Z" transform="translate(-1 -1)"/></svg>